<svg width="172" height="31" viewBox="0 0 172 31" fill="none" xmlns="http://www.w3.org/2000/svg">
<g clip-path="url(#clip0_1_8)">
<path d="M2.42627 25.9181C2.74667 23.1802 2.88779 20.4238 2.84873 17.6671C2.84873 15.5916 2.69786 14.1621 2.42627 13.5212C2.36049 13.2714 2.21579 13.0503 2.01423 12.8914C1.81266 12.7325 1.56525 12.6446 1.30973 12.6411C1.15885 12.6411 1.01298 12.6716 0.922453 12.6716L0.831928 12.3359C1.58131 12.0307 2.93927 11.3897 3.80936 10.9319C5.01642 10.296 6.97286 9.22777 7.54621 9.22777C7.8178 9.22777 8.04915 9.53299 8.04915 10.9624C8.04915 12.5496 7.9888 15.032 7.9888 17.0668C7.9888 18.9541 8.07933 22.1538 8.07933 23.3085C8.12029 24.2165 7.97574 25.1233 7.65469 25.9723C7.33365 26.8213 6.843 27.5943 6.2134 28.2429C4.76996 29.7334 2.54193 30.4659 0.681051 30.7864L0.5 30.4506C1.30974 29.6316 2.06416 28.1411 2.42627 25.9181ZM2.48662 5.23959C2.49637 4.81516 2.58913 4.39687 2.75955 4.00889C2.92998 3.62091 3.17468 3.27092 3.47955 2.97911C3.78443 2.6873 4.14344 2.45946 4.53584 2.30873C4.92824 2.158 5.34625 2.08737 5.76578 2.10092C6.07716 2.08055 6.38936 2.12553 6.68273 2.23303C6.9761 2.34053 7.24431 2.50823 7.47054 2.72558C7.69678 2.94294 7.87613 3.20526 7.99734 3.49608C8.11854 3.7869 8.179 4.09993 8.17489 4.4155C8.17489 5.78898 7.33498 6.48589 6.16312 7.09633C5.29303 7.52364 4.5386 7.88989 3.78419 8.3172L3.51261 8.25616C2.85516 7.39036 2.49494 6.33125 2.48662 5.23959Z" fill="black"/>
<path d="M14.0492 10.8454C15.5371 10.062 17.19 9.65367 18.8674 9.65507C20.8635 9.64016 22.8085 10.2929 24.3998 11.5118C25.2079 12.1616 25.8558 12.9925 26.2922 13.9389C26.7286 14.8852 26.9416 15.9212 26.9145 16.965C26.9145 19.6154 25.4057 21.991 22.8205 23.3289C21.5477 24.0073 20.135 24.3732 18.6964 24.3971C16.606 24.4266 14.5601 23.7855 12.8522 22.5658C12.0183 21.9465 11.343 21.1344 10.8828 20.1972C10.4225 19.26 10.1907 18.225 10.2068 17.1787C10.2088 15.8676 10.5686 14.5825 11.2466 13.465C11.9246 12.3475 12.8945 11.441 14.0492 10.8454ZM18.2337 10.296C16.7601 10.876 15.9755 13.3991 15.9755 16.3241C15.9755 20.1597 17.1474 22.9626 18.9932 23.6951C20.3461 23.2678 21.1608 20.587 21.1608 17.5908C21.1558 13.6738 19.9538 10.6318 18.2337 10.296Z" fill="black"/>
<path d="M28.4132 22.4742C28.703 21.7373 28.8564 20.9527 28.8659 20.1597C28.9212 19.4322 28.9514 18.5471 28.9514 17.4534V12.6716C28.9514 10.5707 28.9212 8.40876 28.8357 7.15737C28.7451 5.63128 28.6245 4.38498 28.2623 3.77963C28.1334 3.57385 27.9552 3.40437 27.7441 3.28697C27.5331 3.16957 27.2961 3.10806 27.0553 3.10814C26.9238 3.10311 26.7922 3.11335 26.663 3.13866L26.5473 2.74188C27.4476 2.37562 29.4342 1.77027 30.6413 1.21579C31.7528 0.635874 33.156 -0.00508118 33.6589 -0.00508118L33.9908 0.269604C34.1157 1.06534 34.1763 1.87006 34.1719 2.67575C34.1719 4.53249 34.1116 10.9014 34.1116 16.6242C34.1116 19.244 34.1719 20.6938 34.4133 21.6196C34.4808 22.0946 34.6726 22.5426 34.9688 22.9174C35.265 23.2921 35.6549 23.58 36.0982 23.7511L36.068 24.0868C35.2281 24.0868 32.7285 23.9952 31.3102 23.9952C29.6857 23.9952 27.4576 24.0868 27.0653 24.0868L27.0352 23.7511C27.3396 23.646 27.6192 23.4784 27.8564 23.2586C28.0936 23.0389 28.2832 22.7718 28.4132 22.4742Z" fill="black"/>
<path d="M37.9289 22.4742C38.2148 21.7363 38.3664 20.9522 38.3765 20.1597C38.4369 19.4322 38.4671 18.5471 38.4671 17.4534V12.6716C38.4671 10.5707 38.4369 8.40876 38.3464 7.15737C38.2558 5.63128 38.1402 4.38498 37.778 3.77963C37.6491 3.57385 37.4709 3.40437 37.2598 3.28697C37.0488 3.16957 36.8118 3.10806 36.571 3.10814C36.4395 3.10311 36.3079 3.11335 36.1787 3.13866L36.058 2.74188C36.9633 2.37562 38.9499 1.77027 40.1569 1.21579C41.2684 0.635874 42.6716 -0.00508118 43.1746 -0.00508118L43.5065 0.269604C43.6314 1.06534 43.692 1.87006 43.6876 2.67575C43.6876 4.53249 43.6272 10.9014 43.6272 16.6242C43.6272 19.244 43.6876 20.6938 43.929 21.6196C43.9965 22.0946 44.1882 22.5426 44.4845 22.9174C44.7807 23.2921 45.1707 23.58 45.6139 23.7511L45.5837 24.0868C44.7438 24.0868 42.2442 23.9952 40.8259 23.9952C39.2014 23.9952 36.9733 24.0868 36.581 24.0868L36.5509 23.7511C36.8553 23.646 37.1349 23.4784 37.3721 23.2586C37.6093 23.0389 37.7989 22.7718 37.9289 22.4742Z" fill="black"/>
<path d="M47.2031 30.6999C46.6978 30.5368 46.2564 30.2162 45.942 29.7841C45.6276 29.3519 45.4564 28.8302 45.4529 28.2937C45.4451 27.969 45.5032 27.6461 45.6234 27.3449C45.7436 27.0437 45.9235 26.7706 46.152 26.5423C46.3805 26.3141 46.6528 26.1355 46.952 26.0177C47.2513 25.8998 47.5712 25.8452 47.8921 25.8571C49.1596 25.8571 49.7581 26.5591 50.09 27.8054C50.1968 28.4081 50.4338 28.9796 50.7841 29.479C51.3074 29.2514 51.7708 28.903 52.137 28.4616C52.8867 27.5579 53.5251 26.5655 54.0381 25.5061L54.4555 24.626C53.5553 23.4662 52.7103 21.6095 51.4781 19.1423C50.1202 16.4309 49.069 14.4216 48.1034 12.809C47.7465 12.195 47.312 11.6307 46.8108 11.1303C46.4471 10.759 46.0028 10.4786 45.5132 10.3113L45.5736 9.97556C46.4185 10.0061 48.4655 10.0671 50.0598 10.0671C51.7799 10.0671 54.4254 10.0061 55.3307 9.97556L55.3608 10.3113C54.927 10.4431 54.5328 10.6827 54.2141 11.0082C53.9078 11.3616 53.7476 11.8206 53.7665 12.2901C53.8081 12.8396 53.9515 13.3762 54.189 13.8722C54.6366 14.9404 55.1949 16.0952 55.8135 17.2855C56.2058 18.1045 56.6232 18.9591 56.8948 19.6306H56.9552C57.8395 17.7527 58.3228 15.7074 58.3735 13.628C58.3926 12.7918 58.1496 11.9709 57.6794 11.2829C57.3225 10.8558 56.8686 10.5224 56.3567 10.3113L56.3868 9.97556C57.4983 10.0061 59.2737 10.0976 60.4506 10.0976C61.7432 10.0976 62.7692 10.0366 64.0919 10.0061L64.1221 10.3418C63.2721 10.8546 62.5263 11.5262 61.9242 12.3206C60.8362 13.7126 59.916 15.2308 59.1832 16.843C57.9812 19.1575 56.8344 21.6247 55.904 23.5425L54.7875 25.8876C54.1593 27.3644 53.2599 28.7074 52.137 29.8453C51.3154 30.5826 50.2579 30.9945 49.1596 31.0051C48.494 31.0333 47.8294 30.9296 47.2031 30.6999Z" fill="black"/>
<path d="M80.4123 21.6858C82.0972 21.6858 83.43 20.8006 84.5666 19.5543L84.8986 19.7985C83.6664 21.9299 81.378 24.3768 77.9731 24.3768C76.2888 24.4362 74.6306 23.9437 73.2454 22.9728C71.5908 21.7875 70.5396 19.7171 70.5396 16.9447C70.544 15.9726 70.7401 15.0111 71.1163 14.1165C71.4926 13.222 72.0414 12.4123 72.7308 11.7349C73.4202 11.0576 74.2363 10.5261 75.1312 10.1715C76.0262 9.81704 76.982 9.64664 77.9429 9.67033C81.9664 9.67033 84.0285 12.3817 84.6874 15.093C84.7592 15.3145 84.8081 15.543 84.8332 15.7747C84.8368 15.8433 84.8251 15.9118 84.799 15.9752C84.7729 16.0386 84.733 16.0953 84.6823 16.141L76.253 16.3241V16.6293C76.2279 19.9511 77.9429 21.6858 80.4123 21.6858ZM76.2832 15.6526C77.4299 15.6526 78.9639 15.561 79.8038 15.4746C79.6579 13.0074 79.0544 10.6928 77.968 10.296C76.9219 11.054 76.3486 12.8853 76.2832 15.6526Z" fill="black"/>
<path d="M96.6422 21.8384C95.4402 23.0236 93.5442 24.3819 91.7637 24.3819C91.0215 24.3763 90.2895 24.2068 89.6188 23.8852C88.9481 23.5636 88.3551 23.0977 87.881 22.52C86.7695 21.2127 86.2565 19.6001 86.2565 17.5297C86.226 16.4641 86.4165 15.4039 86.8158 14.4173C87.2152 13.4307 87.8145 12.5397 88.5751 11.8018C90.1421 10.419 92.1536 9.6612 94.2332 9.67033C95.0382 9.66588 95.8362 9.82144 96.5819 10.1282C96.5819 9.27354 96.5517 8.33246 96.5215 7.41681C96.431 5.31589 96.1594 4.52231 95.8023 4.00853C95.575 3.72396 95.2841 3.49809 94.9536 3.34951C94.6231 3.20093 94.2624 3.13389 93.9012 3.15392L93.8107 2.75714C95.2605 2.40098 96.6812 1.93332 98.0605 1.35822C99.3531 0.625699 100.917 0.015255 101.4 0.015255L101.672 0.167873C101.842 0.822947 101.914 1.50047 101.883 2.17722C101.853 5.83475 101.762 11.2829 101.762 16.1257V17.1024C101.762 19.0202 101.973 20.297 102.366 20.8769C102.47 21.0531 102.617 21.199 102.793 21.3006C102.97 21.4023 103.169 21.4561 103.372 21.4569C103.493 21.4619 103.615 21.4516 103.734 21.4263L103.794 21.7621C102.562 22.342 101.536 22.7795 100.6 23.2526C99.851 23.6799 98.1964 24.4734 97.3212 24.4734L97.0496 24.2903C96.944 24.0919 96.7931 23.4509 96.6422 21.8384ZM94.4444 10.296C94.3015 10.2969 94.1594 10.3174 94.0219 10.3571C92.9406 11.054 91.9448 13.0074 91.9448 16.4614C91.8802 17.8264 92.1826 19.1836 92.8199 20.3886C93.0592 20.7702 93.3764 21.0956 93.7503 21.343C94.1242 21.5904 94.546 21.7541 94.9876 21.8231C95.5751 21.7304 96.1263 21.4771 96.5819 21.0906V11.4253C96.33 11.0893 96.0078 10.8138 95.6382 10.6185C95.2687 10.4233 94.861 10.3132 94.4444 10.296Z" fill="black"/>
<path d="M105.499 22.5658C105.947 21.5942 106.098 19.9511 106.098 17.8756C106.098 15.8001 105.977 14.04 105.595 13.3685C105.516 13.1606 105.379 12.9805 105.2 12.8511C105.021 12.7217 104.809 12.6487 104.589 12.6411C104.447 12.6349 104.305 12.6452 104.166 12.6716L104.076 12.3359C105.041 11.9391 106.455 11.3185 107.541 10.7233C108.834 9.96029 110.307 9.22776 110.79 9.22776C110.875 9.23038 110.957 9.26187 111.023 9.3172C111.089 9.37252 111.134 9.44849 111.152 9.53298C111.244 10.3775 111.284 11.2269 111.273 12.0765C111.273 12.9616 111.212 14.6963 111.212 16.2173V18.074C111.147 19.3589 111.289 20.646 111.635 21.8841C111.729 22.3108 111.926 22.707 112.21 23.0366C112.494 23.3663 112.854 23.6189 113.259 23.7714L113.229 24.1072C112.299 24.1072 109.86 24.0156 108.502 24.0156C106.993 24.0156 104.83 24.1072 104.227 24.1072L104.196 23.7714C104.769 23.5567 105.237 23.1241 105.499 22.5658ZM105.735 5.23958C105.746 4.81491 105.839 4.39652 106.01 4.00851C106.181 3.6205 106.426 3.27055 106.732 2.97881C107.037 2.68706 107.396 2.45929 107.789 2.30863C108.182 2.15796 108.6 2.08736 109.02 2.10091C109.331 2.08131 109.643 2.12683 109.936 2.23461C110.229 2.34238 110.497 2.51011 110.723 2.72731C110.949 2.94452 111.128 3.20652 111.25 3.49699C111.371 3.78745 111.432 4.10013 111.429 4.41549C111.429 5.78897 110.584 6.48588 109.417 7.09632C108.542 7.52363 107.787 7.88988 107.038 8.31719L106.766 8.25615C106.105 7.39208 105.743 6.33222 105.735 5.23958Z" fill="black"/>
<path d="M116.458 23.4509C115.794 22.7184 115.492 21.5942 115.492 20.0427C115.492 19.1575 115.553 16.904 115.553 15.6221C115.553 14.5589 115.553 13.4906 115.523 12.2749C114.738 12.2749 113.868 12.3054 113.325 12.3359L113.264 11.9696C114.708 11.1867 116.035 10.202 117.208 9.04463C118.384 7.87115 119.434 6.57527 120.341 5.17854L120.793 5.2701C120.733 6.3638 120.673 8.28668 120.673 9.62455V10.0213C122.539 10.0213 124.314 10.0213 125.068 9.99081C125.054 10.7679 124.973 11.5424 124.827 12.3054C123.922 12.2749 122.418 12.2749 120.703 12.2749V15.9578C120.664 17.317 120.725 18.6772 120.884 20.0274C121.065 21.1211 121.633 21.6095 122.418 21.6095C123.252 21.5668 124.039 21.2027 124.616 20.5921L125.008 20.9583C124.201 21.9732 123.222 22.8345 122.116 23.5018C121.159 24.1057 120.056 24.4329 118.928 24.448C118.469 24.4716 118.011 24.3948 117.585 24.2227C117.159 24.0506 116.774 23.7873 116.458 23.4509Z" fill="black"/>
<path d="M127.08 22.5658C127.533 21.5942 127.684 19.9511 127.684 17.8756C127.684 15.8001 127.563 14.04 127.181 13.3685C127.102 13.1613 126.964 12.982 126.785 12.8528C126.607 12.7235 126.394 12.65 126.175 12.6411C126.035 12.6351 125.895 12.6454 125.758 12.6716L125.667 12.3359C126.628 11.9391 128.046 11.3185 129.127 10.7233C130.425 9.96029 131.898 9.22776 132.381 9.22776C132.467 9.23038 132.549 9.26187 132.614 9.3172C132.68 9.37252 132.725 9.44849 132.743 9.53298C132.835 10.3775 132.876 11.2269 132.864 12.0765C132.864 12.9616 132.804 14.6962 132.804 16.2173V18.074C132.739 19.3585 132.88 20.6451 133.221 21.8841C133.316 22.311 133.515 22.7071 133.799 23.0367C134.084 23.3662 134.445 23.6188 134.851 23.7714L134.821 24.1072C133.885 24.1072 131.446 24.0156 130.093 24.0156C128.584 24.0156 126.416 24.1072 125.818 24.1072L125.788 23.7714C126.357 23.554 126.82 23.1218 127.08 22.5658ZM127.322 5.23958C127.331 4.8147 127.424 4.39599 127.595 4.00767C127.766 3.61935 128.011 3.26913 128.316 2.97725C128.622 2.68537 128.981 2.45763 129.374 2.30721C129.767 2.15679 130.186 2.08667 130.606 2.10091C130.917 2.08127 131.228 2.12679 131.521 2.23462C131.814 2.34245 132.082 2.51026 132.307 2.72754C132.533 2.94483 132.712 3.20689 132.833 3.49734C132.954 3.78779 133.014 4.10037 133.01 4.41549C133.01 5.78897 132.17 6.48588 130.998 7.09632C130.128 7.52363 129.374 7.88988 128.619 8.31719L128.353 8.25615C127.682 7.39534 127.311 6.33518 127.297 5.23958H127.322Z" fill="black"/>
<path d="M138.648 10.8454C140.136 10.0626 141.789 9.65427 143.466 9.65507C145.462 9.64016 147.407 10.2929 148.998 11.5118C149.807 12.1616 150.454 12.9925 150.891 13.9389C151.327 14.8852 151.54 15.9212 151.513 16.965C151.513 19.6154 150.004 21.991 147.419 23.3289C146.147 24.008 144.734 24.374 143.295 24.3971C141.206 24.4273 139.162 23.7861 137.456 22.5658C136.62 21.9477 135.944 21.1358 135.482 20.1985C135.021 19.2611 134.789 18.2256 134.805 17.1787C134.807 15.8676 135.167 14.5825 135.845 13.465C136.523 12.3475 137.493 11.441 138.648 10.8454ZM142.832 10.296C141.359 10.876 140.574 13.3991 140.574 16.3241C140.574 20.1597 141.751 22.9626 143.592 23.6951C144.945 23.2678 145.759 20.587 145.759 17.5908C145.754 13.6738 144.547 10.6318 142.832 10.296Z" fill="black"/>
<path d="M154.239 22.4742C154.523 21.7357 154.677 20.9521 154.692 20.1597C154.752 19.4322 154.782 18.5471 154.782 17.4534C154.83 16.1727 154.708 14.8913 154.42 13.6433C154.362 13.3672 154.216 13.118 154.004 12.9342C153.792 12.7503 153.527 12.642 153.248 12.6259C153.117 12.6219 152.985 12.6322 152.856 12.6564L152.765 12.3206C153.701 11.9239 155.28 11.2219 156.467 10.5555C157.523 9.94502 158.906 9.21251 159.485 9.21251C159.566 9.21251 159.646 9.23928 159.711 9.28881C159.776 9.33834 159.824 9.40796 159.847 9.48721C159.951 10.3767 159.991 11.2727 159.968 12.168V12.5648C161.783 11.1456 163.699 9.67033 165.505 9.67033C167.612 9.67033 168.88 10.7691 169.212 12.9921C169.34 14.246 169.401 15.5061 169.393 16.7667C169.423 18.2928 169.483 19.6917 169.574 20.6022C169.61 21.3112 169.793 22.0045 170.112 22.637C170.26 22.9039 170.459 23.1384 170.697 23.327C170.935 23.5156 171.208 23.6546 171.5 23.7358L171.47 24.0715C170.052 24.0715 168.578 23.98 166.943 23.98C165.465 23.98 163.599 24.041 162.517 24.0715L162.487 23.7358C162.832 23.5511 163.132 23.2916 163.366 22.9759C163.6 22.6602 163.762 22.296 163.84 21.9096C164.12 20.5589 164.232 19.1781 164.172 17.7993C164.213 16.5724 164.112 15.3449 163.87 14.1418C163.807 13.6592 163.564 13.2195 163.189 12.9137C162.815 12.6078 162.338 12.4593 161.859 12.4987C161.164 12.5436 160.5 12.8088 159.963 13.2566V16.609C159.963 19.1525 160.053 20.7803 160.264 21.6044C160.329 22.0716 160.513 22.5137 160.798 22.8874C161.083 23.2611 161.459 23.5534 161.889 23.7358L161.859 24.0715C161.014 24.0715 158.574 23.98 157.161 23.98C155.537 23.98 153.309 24.0715 152.916 24.0715L152.886 23.7358C153.188 23.636 153.465 23.4717 153.698 23.254C153.932 23.0363 154.116 22.7704 154.239 22.4742Z" fill="black"/>
</g>
<defs>
<clipPath id="clip0_1_8">
<rect width="171" height="31" fill="white" transform="translate(0.5)"/>
</clipPath>
</defs>
</svg>
